<?xml version="1.0" encoding="UTF-8" standalone="no"?>
<svg
   xmlns:dc="http://purl.org/dc/elements/1.1/"
   xmlns:cc="http://creativecommons.org/ns#"
   xmlns:rdf="http://www.w3.org/1999/02/22-rdf-syntax-ns#"
   xmlns:svg="http://www.w3.org/2000/svg"
   xmlns="http://www.w3.org/2000/svg"
   xmlns:sodipodi="http://sodipodi.sourceforge.net/DTD/sodipodi-0.dtd"
   xmlns:inkscape="http://www.inkscape.org/namespaces/inkscape"
   width="210mm"
   height="297mm"
   viewBox="0 0 210 297"
   version="1.1"
   id="svg8"
   inkscape:version="1.0.1 (3bc2e813f5, 2020-09-07)"
   sodipodi:docname="logo.svg">
  <defs
     id="defs2" />
  <sodipodi:namedview
     id="base"
     pagecolor="#ffffff"
     bordercolor="#666666"
     borderopacity="1.0"
     inkscape:pageopacity="0.0"
     inkscape:pageshadow="2"
     inkscape:zoom="0.98994949"
     inkscape:cx="449.9835"
     inkscape:cy="710.17204"
     inkscape:document-units="mm"
     inkscape:current-layer="layer1"
     inkscape:document-rotation="0"
     showgrid="false"
     inkscape:window-width="1366"
     inkscape:window-height="705"
     inkscape:window-x="-8"
     inkscape:window-y="-8"
     inkscape:window-maximized="1" />
  <metadata
     id="metadata5">
    <rdf:RDF>
      <cc:Work
         rdf:about="">
        <dc:format>image/svg+xml</dc:format>
        <dc:type
           rdf:resource="http://purl.org/dc/dcmitype/StillImage" />
        <dc:title></dc:title>
      </cc:Work>
    </rdf:RDF>
  </metadata>
  <g
     inkscape:label="Layer 1"
     inkscape:groupmode="layer"
     id="layer1">
    <path
       style="fill:#d0d0d0;fill-opacity:1;stroke-width:0.371679"
       d="m 102.32478,228.35526 c -0.29722,-0.0657 -1.75633,-0.32882 -3.242456,-0.58482 -8.414195,-1.44941 -17.050552,-6.24978 -23.427018,-13.02151 -5.950278,-6.31911 -9.55867,-13.03566 -11.743476,-21.85897 -1.237813,-4.9989 -1.566057,-13.90913 -0.705634,-19.15455 1.900434,-11.58562 7.726821,-22.13398 16.145476,-29.23051 1.43965,-1.21355 1.429998,-1.1887 -0.758037,1.95209 -2.908718,4.17529 -5.596364,10.03813 -6.784102,14.79886 -0.85654,3.43321 -0.956641,4.51652 -0.956641,10.35298 0,5.8191 0.100856,6.91787 0.939943,10.24018 1.699887,6.73057 10.00691,11.70165 9.656826,18.48066 -0.458015,8.86897 17.192473,12.93439 26.956749,13.53924 l 3.73986,0.23168 -0.23386,2.91107 c -0.22876,2.84762 -1.0677,6.74741 -2.11104,9.81307 l -0.52199,1.53378 -3.20709,0.0581 c -1.7639,0.0319 -3.45028,0.004 -3.74751,-0.0613 z m 11.16848,-0.66818 c 0,-0.061 0.30835,-1.31525 0.68521,-2.78727 0.37687,-1.47202 0.88163,-4.48817 1.1217,-6.70256 1.15075,-10.61444 -2.81085,-17.29159 -11.71443,-19.74433 -2.73615,-0.75374 -7.763178,-1.32985 -11.678863,-1.33844 -1.667764,-0.004 -2.930991,-0.11446 -2.80717,-0.24625 0.123824,-0.13178 2.05579,-0.64316 4.293257,-1.13635 14.405196,-3.17537 27.232756,-1.77503 39.555066,4.31807 3.6041,1.78216 10.80821,6.23551 10.80821,6.68131 0,0.50728 -3.1531,4.78727 -5.48097,7.43982 -2.77652,3.1638 -6.95105,6.45429 -11.14258,8.78293 -3.3743,1.87462 -8.39652,3.89397 -10.5771,4.25288 -0.79261,0.13046 -1.80587,0.31682 -2.25171,0.41413 -0.44584,0.0973 -0.81062,0.12704 -0.81062,0.0661 z m 31.21504,-28.86803 c -16.95062,-10.87793 -37.02957,-12.18107 -58.415684,-3.79123 -1.11433,0.43716 0.532036,-2.17675 3.602734,-3.98614 13.85174,-8.16206 14.07648,-8.63593 22.70897,-10.10634 21.42944,-3.65016 19.38333,0.35365 24.30672,1.32735 4.18884,0.82854 12.199,2.91204 13.05991,3.39699 0.77403,0.43601 0.80167,1.71556 0.11216,5.192 -0.6835,3.44617 -2.44938,9.03759 -2.90428,9.19601 -0.19815,0.069 -1.30989,-0.48392 -2.47053,-1.22876 z M 74.583726,177.8386 c 12.208455,-3.89416 20.505837,-7.7622 27.709714,-12.9176 4.51015,-3.22766 6.85479,-5.28731 10.99028,-9.65443 l 3.66808,-3.81472 4.43808,4.739 c 4.9755,5.31286 8.25188,8.05389 12.91264,11.37049 3.29251,2.34296 17.15498,9.32172 18.88844,9.77894 0.55414,0.14616 -5.15149,-2.30174 -5.24144,-2.20601 -0.30758,0.32737 -6.17052,-1.53683 -10.1378,-3.22344 -5.14569,-2.18758 -9.01335,-4.42005 -14.71966,-8.4964 -2.54761,-1.81991 -4.99526,-3.55387 -5.43924,-3.85325 -0.76022,-0.51264 -0.96463,-0.39824 -3.50984,1.96426 -7.21909,6.70092 -17.326625,12.36526 -26.509615,14.8562 -3.74104,1.01479 -9.72956,1.93343 -12.329092,1.89129 -1.959382,-0.0318 -1.967426,-0.0366 -0.720547,-0.43433 z m 39.720154,-0.97674 -1.53117,-0.12063 v -1.89518 -1.89518 h 1.80137 1.80137 v 1.8946 c 0,1.04203 -0.12159,1.94914 -0.27021,2.0158 -0.14861,0.0667 -0.95922,0.0669 -1.80136,7.9e-4 z m 3.87294,-1.99376 v -1.91723 h 1.80136 1.80137 v 1.91723 1.91721 h -1.80137 -1.80136 z m -5.40411,-5.75165 v -1.91723 h 1.80137 1.80137 v 1.91723 1.91721 h -1.80137 -1.80137 z m 5.40411,0 v -1.91723 h 1.80136 1.80137 v 1.91723 1.91721 h -1.80137 -1.80136 z M 74.2248,163.28558 c -0.0029,-0.55971 3.672592,-7.79913 4.166661,-8.2071 0.283554,-0.23415 0.515547,-0.54348 0.515547,-0.6874 0,-0.14393 0.632255,-1.16021 1.40501,-2.25839 3.248406,-4.61643 8.997687,-10.02593 10.257699,-9.65149 0.583917,0.17353 0.642239,0.13665 0.2446,-0.15469 -0.423487,-0.31028 -0.304814,-0.51423 0.628203,-1.07959 0.632679,-0.38337 1.15135,-0.82645 1.152604,-0.98462 0.0011,-0.15817 0.15997,-0.28759 0.352703,-0.28759 0.192733,0 1.206002,-0.42381 2.251707,-0.9418 2.32687,-1.15263 5.612096,-2.52403 6.584836,-2.74881 4.9763,-1.14993 6.79585,-1.35006 10.62807,-1.16896 4.23009,0.19991 8.69208,0.9656 10.62807,1.82381 1.20197,0.53283 1.44909,0.61762 2.00277,0.68717 0.20984,0.0264 0.28248,0.2185 0.16142,0.42698 -0.12458,0.21455 0.0144,0.28326 0.32036,0.15832 0.7565,-0.30897 2.8673,1.0505 2.28173,1.46956 -0.26055,0.18646 -0.0721,0.22709 0.45768,0.0986 2.01091,-0.48758 10.87148,7.28178 14.65335,12.84873 2.15993,3.17943 3.97828,6.6544 3.79248,7.24764 -0.0909,0.29039 -0.009,0.42508 0.18229,0.29931 0.28645,-0.18842 1.5472,1.96868 1.5472,2.64722 0,0.10925 -0.78642,-0.8025 -1.74759,-2.02608 -0.96118,-1.22359 -2.57546,-3.04432 -3.5873,-4.04607 -1.01184,-1.00174 -1.72506,-1.82528 -1.58494,-1.83008 0.14012,-0.005 -0.27795,-0.28818 -0.92905,-0.62973 -0.65111,-0.34155 -1.12734,-0.80135 -1.05831,-1.02178 0.23625,-0.75432 0.917,-0.68167 1.66967,0.17818 0.41393,0.47288 0.7526,0.66487 0.7526,0.42666 0,-0.23822 -0.16477,-0.5415 -0.36615,-0.67397 -0.20138,-0.13246 -0.29337,-0.36619 -0.20441,-0.51939 0.21353,-0.36771 -1.45295,-0.32705 -1.80137,0.0439 -0.4276,0.45532 -0.94009,0.33414 -0.65599,-0.1551 0.15452,-0.2661 0.0993,-0.33892 -0.13841,-0.18255 -0.21752,0.14307 -1.25583,-0.31893 -2.30738,-1.02667 -2.22105,-1.49488 -5.15675,-3.01968 -7.57894,-3.93649 -0.93721,-0.35474 -1.61781,-0.79344 -1.51245,-0.9749 0.10537,-0.18145 -0.0578,-0.22808 -0.36252,-0.10361 -0.30475,0.12447 -1.65068,-0.12052 -2.99096,-0.54441 -2.56367,-0.81082 -4.13955,-1.1984 -5.99783,-1.47514 -1.34704,-0.20061 -11.91367,-0.19876 -13.19176,0.002 -6.171316,0.97085 -13.26238,3.65384 -18.349179,6.94264 -2.212716,1.4306 -2.754904,1.64341 -2.332145,0.91538 0.16055,-0.27648 0.09869,-0.33851 -0.164748,-0.16523 -0.231999,0.15261 -0.333602,0.42938 -0.225783,0.61505 0.220007,0.37888 -1.895828,2.15523 -2.389314,2.00595 -0.174285,-0.0527 -0.276351,0.0616 -0.226813,0.25396 0.04954,0.19241 -1.146265,1.61594 -2.657342,3.16342 -1.511073,1.54747 -3.091168,3.4175 -3.511319,4.15563 -0.420151,0.73813 -0.764518,1.22014 -0.765257,1.07113 z m 2.766674,-4.97746 c -0.115006,-0.30588 -0.200377,-0.21502 -0.217663,0.23167 -0.01564,0.40421 0.0695,0.63068 0.189223,0.50327 0.119715,-0.12742 0.132512,-0.45814 0.02842,-0.73494 z m 2.154929,-1.3349 c -0.13253,-0.14105 0.0431,-0.61556 0.390298,-1.05447 0.629614,-0.79591 0.629168,-0.79611 -0.170856,-0.0757 -0.707984,0.63751 -0.814625,1.38667 -0.197393,1.38667 0.120408,0 0.110485,-0.11541 -0.02205,-0.25647 z m 65.319347,-1.46903 c 0,-0.21089 -0.15716,-0.12462 -0.34924,0.19172 -0.19208,0.31634 -0.34924,0.74772 -0.34924,0.95861 0,0.2109 0.15716,0.12462 0.34924,-0.19172 0.19208,-0.31634 0.34924,-0.74771 0.34924,-0.95861 z m -61.475791,-2.87583 c -0.278109,-0.29666 -1.892722,-0.26098 -1.719113,0.038 0.08451,0.14554 0.54633,0.23967 1.026254,0.20918 0.479927,-0.0305 0.791711,-0.14172 0.692859,-0.24717 z m 0.240331,-1.72549 c -0.254623,-0.32654 -0.544012,-0.50743 -0.643088,-0.40198 -0.09907,0.10545 0.02817,0.45889 0.282815,0.78542 0.254624,0.32653 0.544013,0.50742 0.643088,0.40198 0.09907,-0.10545 -0.02817,-0.45889 -0.282815,-0.78542 z m 1.473393,0.22108 c -0.27946,-0.18829 -0.549665,-0.74643 -0.600456,-1.24032 -0.123543,-1.20137 -0.103908,-1.16685 -0.511341,-0.89885 -0.464191,0.30533 0.573743,2.49544 1.178818,2.48738 0.299474,-0.004 0.27796,-0.11578 -0.06702,-0.34821 z m 53.108037,-0.0294 c -0.12246,-0.2109 -0.41575,-0.3808 -0.65174,-0.37757 -0.25781,0.004 -0.21338,0.15423 0.11133,0.37757 0.69213,0.47605 0.81685,0.47605 0.54041,0 z m -52.231074,-1.00426 c -0.320816,-0.34145 -0.692477,-0.50461 -0.825916,-0.36259 -0.133438,0.14202 -0.0041,0.41874 0.287362,0.61494 0.851132,0.57289 1.17246,0.42233 0.538554,-0.25235 z m 52.847844,-1.0858 c -0.11907,-0.20841 -0.26995,-0.16763 -0.35227,0.0952 -0.0878,0.28046 -0.51873,0.37671 -1.10493,0.24681 l -0.96093,-0.21294 0.87295,0.55019 c 0.65124,0.41044 0.98477,0.44035 1.31321,0.11774 0.24214,-0.23785 0.34653,-0.5965 0.23197,-0.79701 z m -5.59463,-1.43283 c -0.115,-0.30589 -0.20037,-0.21503 -0.21766,0.23166 -0.0156,0.40422 0.0695,0.63069 0.18922,0.50327 0.11972,-0.12741 0.13252,-0.45813 0.0284,-0.73493 z m 4.79773,0.0945 c 0,-0.19844 -0.16213,-0.46745 -0.36028,-0.59779 -0.19815,-0.13034 -0.36027,0.032 -0.36027,0.36081 0,0.32879 0.16212,0.5978 0.36027,0.5978 0.19815,0 0.36028,-0.16237 0.36028,-0.36082 z m -44.31364,-0.94021 c 0,-0.0829 -0.251606,-0.25346 -0.559126,-0.37906 -0.320611,-0.13094 -0.465227,-0.0667 -0.339008,0.1507 0.211574,0.36435 0.898134,0.53892 0.898134,0.22836 z m 38.81196,-0.081 c -0.11971,-0.12741 -0.43045,-0.14104 -0.69052,-0.0303 -0.28741,0.12241 -0.20204,0.21326 0.21766,0.23166 0.37979,0.0166 0.59258,-0.074 0.47286,-0.20139 z m 1.89894,-1.30211 c 0,-0.2109 -0.16212,-0.38345 -0.36027,-0.38345 -0.19815,0 -0.36028,0.17255 -0.36028,0.38345 0,0.21089 0.16213,0.38344 0.36028,0.38344 0.19815,0 0.36027,-0.17255 0.36027,-0.38344 z m -33.04824,-1.01841 c -0.24391,-0.10503 -0.73028,-0.11142 -1.080817,-0.0142 -0.35053,0.0972 -0.15096,0.18316 0.443487,0.19097 0.59445,0.008 0.88125,-0.0717 0.63733,-0.17676 z m 20.97908,-0.13184 c -0.3963,-0.18124 -1.12586,-0.32125 -1.62123,-0.31112 -0.81727,0.0167 -0.80058,0.0455 0.18013,0.31112 1.50021,0.40629 2.32945,0.40629 1.4411,0 z m -19.18456,-0.25394 c -0.24769,-0.10637 -0.653,-0.10637 -0.90069,0 -0.24769,0.10637 -0.045,0.1934 0.45034,0.1934 0.49538,0 0.69803,-0.087 0.45035,-0.1934 z m 20.62565,-0.1295 c -0.99042,-0.45297 -1.55925,-0.45297 -0.90068,0 0.29722,0.20444 0.78359,0.36222 1.08082,0.35062 0.35633,-0.0139 0.29497,-0.13333 -0.18014,-0.35062 z m -4.31375,-0.69283 c -0.11092,-0.11806 -0.40163,-2.5e-4 -0.64601,0.26181 -0.35317,0.37869 -0.31178,0.42274 0.20168,0.21465 0.35531,-0.144 0.55526,-0.35841 0.44433,-0.47646 z m 8.09662,0.30939 c 0,-0.2109 -0.16212,-0.38345 -0.36027,-0.38345 -0.19815,0 -0.36027,0.17255 -0.36027,0.38345 0,0.21089 0.16212,0.38344 0.36027,0.38344 0.19815,0 0.36027,-0.17255 0.36027,-0.38344 z m -24.95644,-0.23167 c -0.11972,-0.12741 -0.43045,-0.14103 -0.69052,-0.0303 -0.28741,0.12241 -0.20204,0.21327 0.21766,0.23167 0.37979,0.0166 0.59258,-0.074 0.47286,-0.20139 z m 29.64,-0.53522 c -0.44497,-0.30605 -0.45027,-0.37274 -0.03,-0.37757 0.28071,-0.003 0.43575,-0.0853 0.34454,-0.18239 -0.0912,-0.0971 -0.55539,-0.0681 -1.03151,0.0644 -0.80522,0.22411 -0.81669,0.26133 -0.1644,0.53301 1.00701,0.41943 1.5143,0.39786 0.88138,-0.0375 z m -36.38762,-1.15033 c 0,-0.2109 -0.07149,-0.38345 -0.158874,-0.38345 -0.08738,0 -0.259072,0.17255 -0.381537,0.38345 -0.122463,0.21089 -0.05097,0.38344 0.158874,0.38344 0.209844,0 0.381537,-0.17255 0.381537,-0.38344 z m 28.10133,-3.451 c -0.70555,-0.48528 -1.18248,-0.48528 -0.90068,0 0.12246,0.2109 0.49681,0.38081 0.83187,0.37758 0.52502,-0.005 0.53453,-0.0572 0.0688,-0.37758 z m -17.3907,-1.76543 c -0.11972,-0.12742 -0.43046,-0.14104 -0.69053,-0.0303 -0.2874,0.1224 -0.20203,0.21326 0.21767,0.23166 0.37979,0.0166 0.59257,-0.074 0.47286,-0.20139 z m 5.95202,-0.0389 c -0.44584,-0.0914 -1.1754,-0.0914 -1.62123,0 -0.44584,0.0914 -0.0811,0.16617 0.81061,0.16617 0.89168,0 1.25645,-0.0748 0.81062,-0.16617 z m 6.29728,0.0389 c -0.11972,-0.12742 -0.43046,-0.14104 -0.69053,-0.0303 -0.2874,0.1224 -0.20203,0.21326 0.21767,0.23166 0.37978,0.0166 0.59257,-0.074 0.47286,-0.20139 z"
       id="path895"
       sodipodi:nodetypes="cssssssssssscssccccsssscscsssssssscssscssscccsscsssssssssccccccccscccccccccccccccccccccccccccccccsssssscssssssscscsccssscsssssscsssssssscssssssssccssssssssssssssssssssssssssssssssssssscsscscsssscssccsssssscsscscccsssssssssssssssssssssssssssssssssssssssssssssssssscsssssssssssssssss" />
    <path
       style="fill:#d0d0d0;fill-opacity:1;stroke-width:0.371679"
       d="m 102.32478,227.28618 c -0.29722,-0.0657 -1.75633,-0.32882 -3.242456,-0.58482 -8.414195,-1.44941 -18.11963,-6.24978 -24.496096,-13.0215 -5.950278,-6.31911 -8.489592,-13.03567 -10.674398,-21.85898 -1.237813,-4.99889 -1.566057,-13.90913 -0.705634,-19.15454 1.900434,-11.58563 7.726821,-22.13399 16.145476,-29.23052 1.43965,-1.21355 1.429998,-1.1887 -0.758037,1.95209 -2.908718,4.17529 -5.596364,10.03813 -6.784102,14.79886 -0.85654,3.43321 -0.956641,4.51653 -0.956641,10.35298 0,5.8191 10.257098,29.90305 11.096185,33.22536 1.699887,6.73057 -0.149332,-11.28353 -0.499416,-4.50451 -0.458015,8.86896 19.412669,12.1388 29.094909,13.53924 l 1.6017,0.23167 -0.23386,2.91108 c -0.22876,2.84761 -1.0677,6.7474 -2.11104,9.81306 l -0.52199,1.53378 -3.20709,0.0581 c -1.7639,0.0319 -3.45028,0.004 -3.74751,-0.0613 z m 11.16848,-0.66818 c 0,-0.061 0.30835,-1.31525 0.68521,-2.78727 0.37687,-1.47202 0.86201,-4.49039 1.1217,-6.70256 1.68529,-14.35621 0.93092,-8.73897 -6.63631,-16.80436 -1.94188,-2.06972 -12.841298,-4.26982 -16.756983,-4.2784 -1.667764,-0.004 -2.930991,-0.11447 -2.80717,-0.24626 0.123824,-0.13178 2.05579,-0.64315 4.293257,-1.13635 14.405196,-3.17537 15.205626,-2.57684 39.555066,4.31808 3.86854,1.09544 10.80821,6.2355 10.80821,6.6813 0,0.50728 -0.4804,6.39089 -2.80827,9.04345 -2.77652,3.16379 -4.92926,5.85943 -9.53897,7.1793 -14.85341,4.25288 -12.67283,3.89397 -14.85341,4.25288 0,0 -1.80587,0.31682 -2.25171,0.41413 -0.44584,0.0973 -0.81062,0.12704 -0.81062,0.0661 z m 31.21504,-28.86803 c -16.95062,-10.87793 -37.02957,-12.18106 -58.415684,-3.79122 -1.11433,0.43716 0.619558,-0.96674 3.602734,-2.91707 7.170002,-4.68756 15.21315,-8.01572 23.77805,-9.83907 4.59146,-0.97746 18.31425,-0.9827 23.23764,-0.009 4.18884,0.82854 12.199,2.91205 13.05991,3.39699 0,0 3.2071,1.71557 2.51759,5.19201 -0.6835,3.44616 -5.30971,9.196 -5.30971,9.196 -0.19815,0.069 -1.30989,-0.48392 -2.47053,-1.22875 z M 74.583726,176.76952 c 18.622924,-7.36866 18.570881,-7.59646 27.709714,-12.9176 6.49492,-3.78171 6.85479,-5.28731 10.99028,-9.65443 l 3.66808,-3.81472 c 1.47936,1.57967 68.07151,45.33542 4.43808,4.739 -4.74592,-3.02777 36.91818,21.89141 29.21608,20.72492 0,0 0.85154,-0.0327 2.585,0.42451 0.55414,0.14616 -3.82824,-0.97619 -3.90509,-0.86966 -0.26609,0.36886 17.72752,15.41222 2.15659,2.12196 -4.25288,-3.62996 -22.64409,-11.10179 -28.3504,-15.17815 -2.54761,-1.8199 -4.46072,-1.95025 -4.9047,-2.24963 -0.76022,-0.51264 -1.49917,-2.00186 -4.04438,0.36065 -7.21909,6.70091 -17.326625,12.36525 -26.509615,14.8562 -3.74104,1.01478 -9.72956,1.93342 -12.329092,1.89128 -1.959382,-0.0318 -1.967426,-0.0366 -0.720547,-0.43433 z m 39.720154,-0.97674 -1.53117,-0.12063 v -1.89518 -1.89517 h 1.80137 1.80137 v 1.89459 c 0,1.04203 -0.12159,1.94914 -0.27021,2.0158 -0.14861,0.0667 -0.95922,0.0669 -1.80136,7.9e-4 z m 3.87294,-1.99376 v -1.91722 h 1.80136 1.80137 v 1.91722 1.91722 h -1.80137 -1.80136 z m -5.40411,-5.75165 v -1.91722 h 1.80137 1.80137 v 1.91722 1.91721 h -1.80137 -1.80137 z m 5.40411,0 v -1.91722 h 1.80136 1.80137 v 1.91722 1.91721 h -1.80137 -1.80136 z M 74.2248,162.21651 c -0.0029,-0.55971 3.672592,-7.79914 4.166661,-8.20711 0.283554,-0.23415 0.515547,-0.54348 0.515547,-0.6874 0,-0.14393 0.632255,-1.16021 1.40501,-2.25839 3.248406,-4.61643 8.997687,-10.02593 10.257699,-9.65149 0.583917,0.17353 0.642239,0.13665 0.2446,-0.15469 -0.423487,-0.31028 -0.304814,-0.51423 0.628203,-1.07959 0.632679,-0.38337 1.15135,-0.82645 1.152604,-0.98462 0.0011,-0.15817 0.15997,-0.28758 0.352703,-0.28758 0.192733,0 1.206003,-0.42382 2.251707,-0.94181 1.198383,-0.59362 2.650965,-1.24528 3.910928,-1.76844 1.186478,-0.49265 2.202148,-0.87136 2.673908,-0.98037 4.9763,-1.14992 6.79585,-1.35005 10.62807,-1.16895 4.23009,0.1999 8.69208,0.96559 10.62807,1.8238 1.20197,0.53283 1.44909,0.61762 2.00277,0.68717 0.20984,0.0264 0.28248,0.21851 0.16142,0.42698 -0.12458,0.21455 0.0144,0.28326 0.32036,0.15832 0.7565,-0.30897 2.8673,1.0505 2.28173,1.46956 -0.26055,0.18646 -0.0721,0.22709 0.45768,0.0987 2.01091,-0.48757 10.87148,7.28178 14.65335,12.84873 2.15993,3.17943 3.97828,6.6544 3.79248,7.24764 -0.0909,0.29039 -0.009,0.42508 0.18229,0.29931 0.28645,-0.18842 1.5472,1.96869 1.5472,2.64723 0,0.10924 -0.78642,-0.8025 -1.74759,-2.02609 -0.96118,-1.22359 -2.57546,-3.04432 -3.5873,-4.04607 -1.01184,-1.00174 -1.72506,-1.82528 -1.58494,-1.83008 0.14012,-0.005 -0.27795,-0.28818 -0.92905,-0.62973 -0.65111,-0.34155 -1.12734,-0.80135 -1.05831,-1.02178 0.23625,-0.75432 0.917,-0.68167 1.66967,0.17818 0.41393,0.47288 0.7526,0.66487 0.7526,0.42666 0,-0.23822 -0.16477,-0.5415 -0.36615,-0.67397 -0.20138,-0.13246 -0.29337,-0.36619 -0.20441,-0.51939 0.21353,-0.36771 -1.45295,-0.32705 -1.80137,0.0439 -0.4276,0.45532 -0.94009,0.33414 -0.65599,-0.1551 0.15452,-0.2661 0.0993,-0.33892 -0.13841,-0.18255 -0.21752,0.14307 -1.25583,-0.31893 -2.30738,-1.02667 -2.22105,-1.49488 -5.15675,-3.01968 -7.57894,-3.93649 -0.93721,-0.35474 -1.61781,-0.79344 -1.51245,-0.9749 0.10537,-0.18145 -0.0578,-0.22807 -0.36252,-0.10361 -0.30475,0.12447 -1.65068,-0.12052 -2.99096,-0.54441 -2.56367,-0.81082 -4.12003,-1.41453 -5.99783,-1.47514 -2.18378,-0.0705 -16.38894,2.11226 -6.24275,0.53654 -6.17132,0.97085 -20.21139,3.1193 -25.298189,6.4081 -2.212716,1.4306 -2.754904,1.64341 -2.332145,0.91538 0.16055,-0.27648 0.09869,-0.33851 -0.164748,-0.16523 -0.231999,0.15261 -0.333602,0.42938 -0.225783,0.61505 0.220007,0.37888 -1.895828,2.15523 -2.389314,2.00595 -0.174285,-0.0527 -0.276351,0.0616 -0.226813,0.25396 0.04954,0.19241 -1.146265,1.61594 -2.657342,3.16342 -1.511073,1.54747 -3.091168,3.4175 -3.511319,4.15563 -0.420151,0.73813 -0.764518,1.22014 -0.765257,1.07113 z m 2.766674,-4.97747 c -0.115006,-0.30588 -0.200377,-0.21502 -0.217663,0.23167 -0.01564,0.40421 0.0695,0.63068 0.189223,0.50327 0.119715,-0.12742 0.132512,-0.45814 0.02842,-0.73494 z m 2.154929,-1.3349 c -0.13253,-0.14105 0.0431,-0.61556 0.390298,-1.05447 0.629614,-0.79591 0.629168,-0.79611 -0.170856,-0.0757 -0.707984,0.63751 -0.814625,1.38667 -0.197393,1.38667 0.120408,0 0.110485,-0.11541 -0.02205,-0.25647 z m 65.319347,-1.46903 c 0,-0.21089 -0.15716,-0.12462 -0.34924,0.19172 -0.19208,0.31634 -0.34924,0.74772 -0.34924,0.95861 0,0.2109 0.15716,0.12462 0.34924,-0.19172 0.19208,-0.31634 0.34924,-0.74771 0.34924,-0.95861 z m -61.475791,-2.87583 c -0.278109,-0.29666 -1.892722,-0.26098 -1.719113,0.038 0.08451,0.14554 0.54633,0.23967 1.026254,0.20918 0.479927,-0.0305 0.791711,-0.14172 0.692859,-0.24717 z m 0.240331,-1.72549 c -0.254623,-0.32654 -0.544012,-0.50743 -0.643088,-0.40198 -0.09907,0.10545 0.02817,0.45889 0.282815,0.78542 0.254624,0.32653 0.544013,0.50742 0.643088,0.40198 0.09907,-0.10545 -0.02817,-0.45889 -0.282815,-0.78542 z m 1.473393,0.22108 c -0.27946,-0.18829 -0.549665,-0.74643 -0.600456,-1.24032 -0.123543,-1.20137 -0.103908,-1.16685 -0.511341,-0.89885 -0.464191,0.30533 0.573743,2.49544 1.178818,2.48738 0.299474,-0.004 0.27796,-0.11578 -0.06702,-0.34821 z m 53.108037,-0.0294 c -0.12246,-0.2109 -0.41575,-0.3808 -0.65174,-0.37757 -0.25781,0.004 -0.21338,0.15423 0.11133,0.37757 0.69213,0.47605 0.81685,0.47605 0.54041,0 z m -52.231074,-1.00426 c -0.320816,-0.34145 -0.692477,-0.50461 -0.825916,-0.36259 -0.133438,0.14202 -0.0041,0.41874 0.287362,0.61494 0.851132,0.57289 1.17246,0.42233 0.538554,-0.25235 z m 52.847844,-1.0858 c -0.11907,-0.20841 -0.26995,-0.16763 -0.35227,0.0952 -0.0878,0.28046 -0.51873,0.37671 -1.10493,0.24681 l -0.96093,-0.21294 0.87295,0.55019 c 0.65124,0.41044 0.98477,0.44035 1.31321,0.11774 0.24214,-0.23785 0.34653,-0.5965 0.23197,-0.79701 z m -5.59463,-1.43283 c -0.115,-0.30589 -0.20037,-0.21503 -0.21766,0.23166 -0.0156,0.40422 0.0695,0.63069 0.18922,0.50327 0.11972,-0.12741 0.13252,-0.45813 0.0284,-0.73493 z m 4.79773,0.0945 c 0,-0.19844 -0.16213,-0.46745 -0.36028,-0.59779 -0.19815,-0.13034 -0.36027,0.032 -0.36027,0.36081 0,0.32879 0.16212,0.5978 0.36027,0.5978 0.19815,0 0.36028,-0.16237 0.36028,-0.36082 z m -44.31364,-0.94021 c 0,-0.0829 -0.251606,-0.25346 -0.559126,-0.37906 -0.320611,-0.13094 -0.465227,-0.0667 -0.339008,0.1507 0.211574,0.36435 0.898134,0.53892 0.898134,0.22836 z m 38.81196,-0.081 c -0.11971,-0.12741 -0.43045,-0.14104 -0.69052,-0.0303 -0.28741,0.12241 -0.20204,0.21326 0.21766,0.23166 0.37979,0.0166 0.59258,-0.074 0.47286,-0.20139 z m 1.89894,-1.30211 c 0,-0.2109 -0.16212,-0.38345 -0.36027,-0.38345 -0.19815,0 -0.36028,0.17255 -0.36028,0.38345 0,0.21089 0.16213,0.38344 0.36028,0.38344 0.19815,0 0.36027,-0.17255 0.36027,-0.38344 z m -33.04824,-1.0184 c -0.24391,-0.10504 -0.73028,-0.11143 -1.080817,-0.0142 -0.35053,0.0972 -0.15096,0.18316 0.443487,0.19098 0.59445,0.008 0.88125,-0.0717 0.63733,-0.17677 z m 20.97908,-0.13184 c -0.3963,-0.18125 -1.12586,-0.32126 -1.62123,-0.31113 -0.81727,0.0167 -0.80058,0.0455 0.18013,0.31113 1.50021,0.40629 2.32945,0.40629 1.4411,0 z m -19.18456,-0.25395 c -0.24769,-0.10637 -0.653,-0.10637 -0.90069,0 -0.24769,0.10637 -0.045,0.1934 0.45034,0.1934 0.49538,0 0.69803,-0.087 0.45035,-0.1934 z m 20.62565,-0.1295 c -0.99042,-0.45297 -1.55925,-0.45297 -0.90068,0 0.29722,0.20444 0.78359,0.36222 1.08082,0.35062 0.35633,-0.0139 0.29497,-0.13333 -0.18014,-0.35062 z m -4.31375,-0.69283 c -0.11092,-0.11806 -0.40163,-2.4e-4 -0.64601,0.26181 -0.35317,0.37869 -0.31178,0.42274 0.20168,0.21465 0.35531,-0.144 0.55526,-0.3584 0.44433,-0.47646 z m 8.09662,0.30939 c 0,-0.21089 -0.16212,-0.38344 -0.36027,-0.38344 -0.19815,0 -0.36027,0.17255 -0.36027,0.38344 0,0.21089 0.16212,0.38344 0.36027,0.38344 0.19815,0 0.36027,-0.17255 0.36027,-0.38344 z m -24.95644,-0.23166 c -0.11972,-0.12742 -0.43045,-0.14104 -0.69052,-0.0303 -0.28741,0.1224 -0.20204,0.21326 0.21766,0.23166 0.37979,0.0166 0.59258,-0.074 0.47286,-0.20139 z m 29.64,-0.53523 c -0.44497,-0.30605 -0.45027,-0.37274 -0.03,-0.37757 0.28071,-0.003 0.43575,-0.0853 0.34454,-0.18239 -0.0912,-0.0971 -0.55539,-0.0681 -1.03151,0.0644 -0.80522,0.22412 -0.81669,0.26133 -0.1644,0.53301 1.00701,0.41943 1.5143,0.39786 0.88138,-0.0375 z m -36.38762,-1.15033 c 0,-0.21089 -0.07149,-0.38344 -0.158874,-0.38344 -0.08738,0 -0.259072,0.17255 -0.381537,0.38344 -0.122463,0.21089 -0.05097,0.38344 0.158874,0.38344 0.209844,0 0.381537,-0.17255 0.381537,-0.38344 z m 28.10133,-3.45099 c -0.70555,-0.48529 -1.18248,-0.48529 -0.90068,0 0.12246,0.21089 0.49681,0.3808 0.83187,0.37757 0.52502,-0.005 0.53453,-0.0572 0.0688,-0.37757 z m -17.3907,-1.76544 c -0.11972,-0.12742 -0.43046,-0.14104 -0.69053,-0.0303 -0.2874,0.1224 -0.20203,0.21326 0.21767,0.23166 0.37979,0.0166 0.59257,-0.074 0.47286,-0.20139 z m 5.95202,-0.0389 c -0.44584,-0.0914 -1.1754,-0.0914 -1.62123,0 -0.44584,0.0914 -0.0811,0.16617 0.81061,0.16617 0.89168,0 1.25645,-0.0748 0.81062,-0.16617 z m 6.29728,0.0389 c -0.11972,-0.12742 -0.43046,-0.14104 -0.69053,-0.0303 -0.2874,0.1224 -0.20203,0.21326 0.21767,0.23166 0.37978,0.0166 0.59257,-0.074 0.47286,-0.20139 z"
       id="path895-2"
       sodipodi:nodetypes="cssssssssssscssccccsssscscsssssssscssscssscccsscsssssssssccccccccscccccccccccccccccccccccccccccccsssssscsssssssscscsccssscsssssscsssssssscssssssssccssssssssssssssssssssssssssssssssssssscsscscsssscssccsssssscsscscccsssssssssssssssssssssssssssssssssssssssssssssssssscsssssssssssssssss" />
  </g>
</svg>
